<svg xmlns="http://www.w3.org/2000/svg" width="14" height="14"><g fill="none" fill-rule="evenodd"><path fill="#202122" d="M-16-617h360V23H-16z"/><path d="M-16-9h360v32H-16z"/><g fill="#FFF"><path d="M7 0a7 7 0 100 14A7 7 0 007 0zm0 13A6 6 0 117 1a6 6 0 010 12z"/><path d="M5.3 8.4c-.7 0-1-.4-1-1.2 0-.8.3-1.2 1-1.2.4 0 .6.2.8.6l.9-.5a2 2 0 00-1.9-1 2 2 0 00-1.5.6A1.89 1.89 0 003 7.2a2.107 2.107 0 00.6 1.6 2 2 0 001.5.6c.78-.014 1.5-.43 1.9-1.1l-.9-.4c-.166.29-.467.477-.8.5z"/><path d="M9.3 8.4c-.7 0-1-.4-1-1.2 0-.8.3-1.2 1-1.2.4 0 .6.2.8.6l.9-.5a2 2 0 00-1.9-1 2 2 0 00-1.5.6A1.89 1.89 0 007 7.2a2.107 2.107 0 00.6 1.6 2 2 0 001.5.6c.78-.014 1.5-.43 1.9-1.1l-.9-.4c-.166.29-.467.477-.8.5z"/></g></g></svg>