<svg xmlns="http://www.w3.org/2000/svg" width="14" height="14"><g fill="none" fill-rule="evenodd"><path fill="#202122" d="M-60-617h360V23H-60z"/><path d="M-60-9h360v32H-60z"/><g fill="#FFF"><path d="M7 0a7 7 0 100 14A7 7 0 007 0zm0 13A6 6 0 117 1a6 6 0 010 12z"/><path d="M3.89 6a3.143 3.143 0 011-2 2.998 2.998 0 012-.7 3.37 3.37 0 012.69 1.1 3.852 3.852 0 011 2.73 3.772 3.772 0 01-1 2.69 3.43 3.43 0 01-2.63 1.07 3.15 3.15 0 01-2.06-.72 3.045 3.045 0 01-1-2h1.73c0 .85.55 1.27 1.53 1.27a1.39 1.39 0 001.18-.63 2.821 2.821 0 00.46-1.71 2.77 2.77 0 00-.42-1.68 1.381 1.381 0 00-1.17-.63A1.368 1.368 0 005.62 6h.5L4.75 7.42 3.37 6h.52z"/></g></g></svg>