<svg xmlns="http://www.w3.org/2000/svg" width="14" height="14"><g fill="#FFF"><path d="M10.7 9.3c.194-.406.296-.85.3-1.3H9.3l1.4 1.3zm-.2-4.8a4.002 4.002 0 00-5.8-1.2l1.2 1.2A2 2 0 019.1 6h1.8a2.706 2.706 0 00-.4-1.5z"/><path d="M7 0a7 7 0 100 14A7 7 0 007 0zM1 7a5.781 5.781 0 011-3.2l1.4 1.4a5.188 5.188 0 00.9 5.2 4.39 4.39 0 004.9.7l1 1.1c-.923.597-2 .91-3.1.9A6.19 6.19 0 011 7zm3.9-.2l3 3.1a2.231 2.231 0 01-2.5-.8 4.797 4.797 0 01-.5-2.3zm6.4 4.4L2.9 2.7A5.503 5.503 0 017 1a6 6 0 016 6 6.345 6.345 0 01-1.7 4.2z"/></g></svg>