<svg xmlns="http://www.w3.org/2000/svg" width="16" height="15" viewBox="0 0 16 15">
    <g fill="none" transform="translate(2 1)">
        <ellipse cx="5.926" cy="6.134" rx="5.136" ry="5.316"/>
        <path fill="#72777D" d="M5.915 0c1.664 0 3.068.591 4.211 1.774 1.15 1.19 1.725 2.644 1.725 4.36 0 1.723-.564 3.158-1.693 4.304-1.2 1.22-2.614 1.83-4.243 1.83-1.602 0-2.991-.603-4.169-1.808C.582 9.255 0 7.813 0 6.134 0 4.454.582 3 1.746 1.774 2.889.592 4.278 0 5.915 0zm.021 1.106c-1.347 0-2.486.49-3.418 1.468-.966 1.022-1.45 2.21-1.45 3.56 0 1.358.48 2.534 1.44 3.526.959.994 2.102 1.49 3.428 1.49 1.319 0 2.469-.5 3.45-1.5.93-.928 1.396-2.1 1.396-3.516 0-1.395-.473-2.581-1.418-3.56-.945-.978-2.088-1.468-3.428-1.468zm1.587 3.505V7.12h-.677v2.98h-1.84v-2.98h-.678V4.612c0-.11.037-.202.111-.28.074-.076.164-.114.27-.114h2.434c.098 0 .187.038.264.115.077.077.116.17.116.28zM5.1 3.034c0-.576.275-.865.826-.865.55 0 .825.288.825.865 0 .57-.275.854-.825.854-.55 0-.826-.284-.826-.854z"/>
    </g>
</svg>
