<svg xmlns="http://www.w3.org/2000/svg" xmlns:xlink="http://www.w3.org/1999/xlink" width="15" height="15"><defs><path id="a" d="M0 0h11.851v12.267H0z"/></defs><g fill="none" fill-rule="evenodd" transform="translate(2 1)"><mask id="b" fill="#fff"><use xlink:href="#a"/></mask><path fill="#72777D" d="M5.926 11.04c-2.618 0-4.74-2.196-4.74-4.906 0-2.71 2.122-4.907 4.74-4.907 2.618 0 4.74 2.197 4.74 4.907s-2.122 4.907-4.74 4.907zm0-11.04a5.783 5.783 0 00-4.2 1.786A6.199 6.199 0 000 6.134a6.208 6.208 0 001.725 4.348 5.789 5.789 0 004.2 1.785 5.79 5.79 0 004.201-1.785 6.21 6.21 0 001.725-4.348 6.206 6.206 0 00-1.725-4.348A5.786 5.786 0 005.926 0z" mask="url(#b)"/><path fill="#72777D" d="M8.007 7.196c-.606 0-.867-.378-.867-1.134 0-.756.26-1.134.867-1.134.346 0 .522.192.692.57l.782-.47c-.333-.64-.98-1.004-1.65-.93a1.692 1.692 0 00-1.297.571c-.36.364-.55.885-.522 1.42a2.095 2.095 0 00.522 1.518c.342.378.812.584 1.297.57.675-.015 1.296-.408 1.644-1.04l-.776-.385a.88.88 0 01-.692.47v-.026zm-3.638 0c-.607 0-.867-.378-.867-1.134 0-.756.26-1.134.867-1.134.345 0 .521.192.691.57l.782-.47c-.333-.64-.98-1.004-1.65-.93a1.692 1.692 0 00-1.297.571c-.359.364-.55.885-.521 1.42a2.094 2.094 0 00.521 1.518c.342.378.812.584 1.298.57.675-.015 1.295-.408 1.643-1.04l-.776-.385a.88.88 0 01-.691.47v-.026z" mask="url(#b)"/></g></svg>