<svg xmlns="http://www.w3.org/2000/svg" xmlns:xlink="http://www.w3.org/1999/xlink" width="15" height="15" viewBox="0 0 15 15">
    <defs>
        <path id="prefix__a" d="M0 0L11.851 0 11.851 12.267 0 12.267z"/>
    </defs>
    <g fill="none" fill-rule="evenodd" transform="translate(2 1)">
        <mask id="prefix__b" fill="#fff">
            <use xlink:href="#prefix__a"/>
        </mask>
        <path fill="#72777D" d="M5.926 11.04c-2.618 0-4.74-2.196-4.74-4.906 0-2.71 2.122-4.907 4.74-4.907 2.618 0 4.74 2.197 4.74 4.907s-2.122 4.907-4.74 4.907zm0-11.04c-1.575-.01-3.088.633-4.2 1.786C.611 2.938-.01 4.504 0 6.134c-.01 1.63.612 3.195 1.725 4.348 1.113 1.152 2.626 1.795 4.2 1.785 1.575.01 3.088-.633 4.201-1.785 1.113-1.153 1.735-2.719 1.725-4.348.01-1.63-.612-3.196-1.725-4.348C9.013.633 7.5-.01 5.926 0z" mask="url(#prefix__b)"/>
        <path fill="#72777D" d="M8.007 7.196c-.606 0-.867-.378-.867-1.134 0-.756.26-1.134.867-1.134.346 0 .522.192.692.57l.782-.47c-.333-.64-.98-1.004-1.65-.93-.485-.013-.955.194-1.297.571-.36.364-.55.885-.522 1.42-.031.564.158 1.116.522 1.518.342.378.812.584 1.297.57.675-.015 1.296-.408 1.644-1.04l-.776-.385c-.147.27-.405.446-.692.47v-.026zm-3.638 0c-.607 0-.867-.378-.867-1.134 0-.756.26-1.134.867-1.134.345 0 .521.192.691.57l.782-.47c-.333-.64-.98-1.004-1.65-.93-.485-.013-.955.194-1.297.571-.359.364-.55.885-.521 1.42-.032.564.158 1.116.521 1.518.342.378.812.584 1.298.57.675-.015 1.295-.408 1.643-1.04l-.776-.385c-.147.27-.405.446-.691.47v-.026z" mask="url(#prefix__b)"/>
    </g>
</svg>
