<svg xmlns="http://www.w3.org/2000/svg" width="105" height="16"><path d="M9.491 3.46s-.323-.663-.434-.883C8.321 1.108 8.337 1.03 7.594.93 7.385.903 7.278.876 7.278.772V.308L7.34.262C8.684.26 11.674.26 11.674.26l.116.04v.463c0 .106-.075.16-.228.16l-.314.045c-.794.062-.664.39-.136 1.448L16.12 12.74l.17.047 4.448-10.632c.154-.429.13-.733-.068-.911-.2-.174-.34-.278-.855-.3l-.417-.02a.237.237 0 01-.147-.054.153.153 0 01-.07-.129V.3l.064-.046h5.024L24.32.3v.44c0 .12-.068.18-.202.18-.658.03-1.146.174-1.462.431-.317.259-.564.614-.741 1.078 0 0-4.09 9.43-5.49 12.565-.535 1.027-1.061.933-1.525-.03-.978-2.03-3.734-8.189-3.734-8.189L9.491 3.46z"/><path d="M17.517.255s-2.826-.009-4.084 0L13.37.3v.441a.15.15 0 00.07.13.236.236 0 00.145.053l.202.022c.514.02.75.157.821.242.123.15.184.314-.114.968L9.218 12.758l-.139-.036S5.3 4.694 4.206 2.008c-.114-.277-.165-.484-.165-.612 0-.272.245-.42.733-.44l.57-.024c.151 0 .228-.06.228-.18V.31L5.521.265S.994.26.059.265L.008.31v.463c0 .084.105.135.316.159.574.03.952.123 1.134.277.18.155.372.548.626 1.16 1.374 3.325 4.293 9.258 5.714 12.636.41.923.924 1.066 1.549-.028 1.082-2.02 4.014-8.194 4.014-8.194l2.31-4.352c.27-.46.529-.87.66-1.06.241-.35.376-.415 1.035-.447.134 0 .202-.06.202-.182v-.44l-.05-.047zm8.593 13.763c0 .508.23.809.964.878l.482.047c.069 0 .138.045.138.138v.485l-.023.047s-1.744-.047-2.455-.047c-.642 0-2.432.047-2.432.047l-.046-.047v-.485c0-.093.07-.138.16-.138l.46-.047c.757-.07.986-.44.986-.878V6.322c0-.507-.276-.648-.986-.716l-.46-.048c-.09 0-.16-.021-.16-.092v-.533l.023-.046s1.813.046 2.524.046c.62 0 2.386-.046 2.386-.046l.023.046v.509c0 .07-.046.115-.138.115l-.482.047c-.711.069-.963.255-.963.718v7.696zm6.77 0c0 .508.3.762.964.878l.253.047c.069.022.137.045.137.138v.485l-.023.047s-1.445-.047-2.133-.047c-.642 0-2.524.047-2.524.047l-.045-.047v-.485c0-.093.068-.138.16-.138l.459-.047c.688-.07.986-.44.986-.878V6.322c0-.507-.252-.648-.986-.716l-.459-.048c-.092 0-.16-.021-.16-.092v-.533l.022-.046s1.882.046 2.593.046c.643 0 2.087-.046 2.087-.046l.023.046v.509c0 .07-.045.092-.137.115l-.253.047c-.71.138-.963.255-.963.718v3.49c.757 0 1.193-.39 2.202-1.479.918-1.018 1.63-1.87 1.63-2.312 0-.185-.207-.392-.666-.463-.092-.021-.138-.046-.138-.115v-.534l.023-.021s1.858.046 2.524.046c.596 0 1.605-.046 1.605-.046l.07.021v.534c0 .069-.07.115-.184.115-.895.07-1.514.116-2.34 1.063l-1.973 2.287c-.39.417-.528.67-.528.856 0 .138.092.253.207.392l3.464 4.206c.275.322.826.462 1.284.554l.115.022c.069.022.16.068.16.138v.485l-.068.023s-1.216-.023-1.858-.023c-.574 0-1.4.023-1.4.023l-.023-.023v-.277c0-.302-.023-.554-.344-.924l-2.546-3.19c-.344-.463-.711-.577-1.216-.577v3.425zm12.369 0c0 .508.23.809.963.878l.482.047c.069 0 .138.045.138.138v.485l-.023.047s-1.744-.047-2.455-.047c-.642 0-2.432.047-2.432.047l-.046-.047v-.485c0-.093.07-.138.161-.138l.459-.047c.757-.07.986-.44.986-.878V6.322c0-.507-.275-.648-.986-.716l-.459-.048c-.092 0-.16-.021-.16-.092v-.533l.022-.046s1.813.046 2.524.046c.62 0 2.386-.046 2.386-.046l.023.046v.509c0 .07-.046.115-.138.115l-.482.047c-.71.069-.963.255-.963.718v7.696zm4.957-7.651c0-.716-.298-.74-1.377-.809-.137 0-.16-.068-.16-.115V4.91l.046-.023c.344 0 1.697.046 2.363.046.642 0 1.56-.046 2.408-.046 3.256 0 3.853 1.617 3.853 2.82 0 1.388-.665 3.56-3.921 3.56-.574 0-1.033-.048-1.447-.232v3.096c0 .507.276.624 1.01.74l.46.068c.092.023.162.048.162.138v.486l-.021.047s-1.836-.047-2.548-.047c-.642 0-2.363.047-2.363.047l-.022-.047v-.486c0-.092.045-.115.137-.138l.482-.069c.711-.092.94-.3.94-.74l-.002-7.764zm1.766 4.022c.46.186 1.033.208 1.492.208 1.377 0 2.04-.833 2.04-2.611 0-1.988-.895-2.427-2.155-2.427-1.102 0-1.378.208-1.378.809l.001 4.021zm9.318 5.177c-.688 0-2.27.047-2.27.047l-.024-.047v-.508c0-.046.024-.115.138-.115l.529-.047c.712-.07.918-.532.918-.993V6.276c0-.533-.275-.624-.918-.67l-.53-.048c-.137-.021-.137-.068-.137-.092v-.533l.024-.046s1.788.046 2.476.046h3.373c.688 0 2.318-.046 2.318-.046l.047.046c.022.994.182 1.897.345 2.775l-.572.092c-.252-.856-.688-2.08-2.156-2.08h-1.835c-.436 0-.665.162-.665.554v3.352h1.72c.643 0 .802-.278.895-.74l.137-.485c0-.07.046-.117.137-.117h.389c.047 0 .047.024.047.07-.047.507-.137 1.156-.137 1.71 0 .578.091 1.064.137 1.596l-.047.047h-.389c-.114 0-.162-.047-.162-.117l-.115-.507c-.092-.463-.298-.718-.897-.718h-1.719v3.537c0 .438.25.877.665.877h2.18c1.17 0 1.814-.74 2.087-1.943l.572.069-.46 2.657-.045.046s-1.354-.046-2.042-.046l-4.014.004zm8.628-.623l.527-.047c.69-.07.919-.277.919-.993V6.276c0-.602-.163-.602-.919-.67l-.503-.048c-.091 0-.162-.046-.162-.115v-.509l.022-.046s2.02.046 2.434.046c.434 0 2.431-.046 3.028-.046 3.831 0 5.713 2.404 5.713 5.477 0 4.046-2.846 5.246-5.39 5.246-1.836 0-2.638-.047-3.349-.047-.689 0-2.433.047-2.433.047l-.022-.047v-.486a.128.128 0 01.135-.135zm5.116 0c2.523 0 3.947-.946 3.947-4.184 0-2.403-.528-5.2-4.382-5.2-.895 0-1.469.138-1.469.717v7.627c0 .645.16 1.04 1.904 1.04zm11.359-.925c0 .508.23.809.963.878l.482.047c.07 0 .138.045.138.138v.485l-.023.047s-1.744-.047-2.454-.047c-.643 0-2.432.047-2.432.047l-.046-.047v-.485c0-.093.068-.138.16-.138l.46-.047c.756-.07.986-.44.986-.878V6.322c0-.507-.276-.648-.986-.716l-.46-.048c-.092 0-.16-.021-.16-.092v-.533l.023-.046s1.812.046 2.521.046c.619 0 2.387-.046 2.387-.046l.021.046v.509c0 .07-.047.115-.137.115l-.482.047c-.712.069-.964.255-.964.718l.003 7.696zm7.067.878l.666.047c.092 0 .183.07.183.184v.44l-.045.046s-2.501-.047-3.052-.047c-.597 0-2.065.047-2.065.047l-.047-.047v-.439c0-.115.069-.184.184-.184 1.01-.07 1.582-.255 2.225-1.734L96.6 1.19c.251-.6.436-.833.782-.833.32 0 .435.232.617.695l4.703 12.526c.322.902.782 1.248 1.7 1.34l.251.022c.116 0 .23.069.23.186v.438l-.068.047s-1.767-.047-2.662-.047c-.803 0-3.053.047-3.053.047l-.02-.047v-.438c0-.117.045-.186.163-.186l.642-.047c.87-.068 1.194-.347.963-.993L99.45 9.993h-4.774c-.55 0-.688.092-.802.391l-1.331 3.352c-.23.581.069 1.09.918 1.16zm5.621-5.872l-2.225-6.17h-.046l-2.294 5.87c-.092.233.068.3.573.3h3.992z"/></svg>