<svg xmlns="http://www.w3.org/2000/svg" width="60" height="39" viewBox="0 0 60 39">
    <path fill="#202122" fill-rule="evenodd" d="M59.8 1.266c-.134.179-.28.268-.44.268-1.318.125-2.395.55-3.232 1.272-.837.723-1.7 2.102-2.59 4.138L39.92 37.714c-.09.286-.338.43-.748.43-.32 0-.57-.144-.747-.43L30.788 21.7l-8.785 16.015c-.178.285-.428.428-.748.428-.392 0-.65-.143-.774-.428L7.103 6.944c-.837-1.91-1.718-3.245-2.644-4.004-.925-.759-2.216-1.227-3.872-1.406-.142 0-.275-.076-.4-.228C.062 1.155 0 .981 0 .784c0-.5.142-.75.427-.75 1.193 0 2.439.054 3.739.161 1.21.107 2.35.16 3.417.16 1.086 0 2.368-.053 3.846-.16 1.548-.107 2.919-.16 4.112-.16.285 0 .427.25.427.75s-.089.75-.267.75c-1.193.088-2.132.392-2.817.91-.686.517-1.028 1.196-1.028 2.035 0 .428.142.964.427 1.607l11.055 25.04 6.275-11.89-5.848-12.293c-1.05-2.196-1.914-3.611-2.59-4.245-.677-.634-1.7-1.022-3.07-1.165-.125 0-.246-.076-.361-.228-.116-.151-.174-.325-.174-.522 0-.5.125-.75.374-.75 1.193 0 2.287.054 3.284.161.962.107 1.985.16 3.071.16 1.068 0 2.199-.053 3.391-.16 1.229-.107 2.44-.16 3.632-.16.285 0 .427.25.427.75s-.089.75-.267.75c-2.385.16-3.578.838-3.578 2.034 0 .536.276 1.366.828 2.491l3.871 7.874L36.45 6.73c.534-1.018.8-1.875.8-2.571 0-1.643-1.192-2.518-3.577-2.625-.214 0-.32-.25-.32-.75 0-.178.053-.348.16-.509.106-.16.213-.24.32-.24.854 0 1.905.053 3.15.16 1.193.107 2.172.16 2.938.16.552 0 1.362-.044 2.43-.133C43.703.097 44.833.034 45.74.034c.214 0 .32.215.32.643 0 .571-.195.857-.587.857-1.389.143-2.506.527-3.351 1.152-.846.625-1.9 2.044-3.164 4.258l-5.127 9.507 6.942 14.194L51.028 6.73c.356-.875.534-1.679.534-2.41 0-1.75-1.193-2.679-3.578-2.786-.214 0-.32-.25-.32-.75s.16-.75.48-.75c.872 0 1.905.054 3.098.161 1.103.107 2.029.16 2.777.16.783 0 1.69-.053 2.723-.16 1.068-.107 2.03-.16 2.884-.16.25 0 .374.214.374.642 0 .214-.067.41-.2.59z"/>
</svg>
