<svg xmlns="http://www.w3.org/2000/svg" width="138" height="21" viewBox="0 0 91 21"><path fill="#72777D" d="M81.711.974c.276-.016.621.076 1.035.276.46.292.736.53.828.715a.595.595 0 01-.046.553c-.276.292-.536.745-.782 1.36-.153.323-.85 1.522-2.093 3.596a.918.918 0 01.276.23l.76.854c.183.169.206.484.068.945-.138.983-.184 3.534-.138 7.653 1.258-.215 2.446-.4 3.565-.553v-2.605c-.046-.015-.076-.015-.092 0-.782.184-1.472.13-2.07-.161-.368-.231-.299-.392.207-.485.89-.123 1.541-.238 1.955-.345v-1.845c-.966.231-1.686.208-2.162-.069-.352-.215-.291-.368.184-.46a28.354 28.354 0 001.978-.37c-.092-1.167-.214-1.92-.368-2.259-1.119.2-1.932.177-2.438-.069-.368-.215-.299-.376.207-.484.89-.107 1.71-.261 2.461-.46.69-.2 1.342-.416 1.955-.646a2.168 2.168 0 011.243-.185c.414.108.674.238.782.392.06.123.038.238-.07.346-.076.061-1.134.353-3.174.876.552.353.76.722.621 1.106-.046.43-.069.769-.069 1.015.445-.292.943-.392 1.495-.3.384.077.63.192.737.346.06.107.038.215-.07.323-.06.076-.306.169-.736.276-.506.108-.989.23-1.449.369-.03.569-.053 1.16-.069 1.775.491-.23.974-.315 1.45-.254.413.108.674.239.782.392.06.123.038.239-.07.346-.107.062-.835.254-2.185.576-.03.861-.053 1.76-.069 2.697.767-.184 1.45-.33 2.048-.438.858-.292 1.702-.138 2.53.462.23.215.314.4.253.553-.077.123-.253.184-.53.184a5.172 5.172 0 01-.69 0c-2.56.016-4.745.238-6.555.669-.69.123-1.219.092-1.587-.093-.03 1.307-.138 2.237-.322 2.79-.2.46-.444.553-.736.276a.365.365 0 01-.138-.184c-.536-.8-.705-1.552-.506-2.26a26.61 26.61 0 00.713-6.223c0-1.767-.16-2.95-.483-3.55a.643.643 0 01-.138-.23c-.736.875-1.219 1.36-1.449 1.452-.184.046-.268-.008-.253-.162.015-.107.092-.238.23-.392C80.04 6.96 81.075 4.8 81.642 2.818c.108-.538.07-.968-.115-1.291-.153-.308-.092-.492.184-.553zM55.644 13.36l.1.015c.383.092.812.322 1.287.691.184.2.2.423.046.669-.107.215-.168.599-.184 1.152.721-.276 1.334-.369 1.84-.276.46.123.744.276.851.46.077.154.039.285-.115.393-.076.061-.966.253-2.668.576a85.567 85.567 0 00-.16 2.351c1.318-.2 2.422-.353 3.311-.46.905-.2 1.772.022 2.6.668.23.23.299.422.207.576-.077.123-.261.184-.552.184-3.972-.307-7.437-.138-10.397.507-.26.062-.537.039-.828-.069a1.823 1.823 0 01-.69-.438c-.23-.276-.184-.422.138-.438 1.856-.169 3.596-.307 5.221-.415a121.55 121.55 0 01-.069-2.213 3.539 3.539 0 01-2.07-.345c-.398-.277-.314-.461.253-.554l1.771-.184a84.075 84.075 0 01-.115-1.867c-.214-.477-.299-.746-.253-.807.184-.154.376-.208.575-.161zM6.246 15.542c.23-.061.605 0 1.127.185.475.153.743.353.805.6.046.168-.031.368-.23.599-2.5 2.505-4.348 3.81-5.544 3.918-.49.077-.544-.03-.16-.322 2.315-2.014 3.55-3.535 3.703-4.565.045-.26.145-.4.299-.415zm4.876.07c.03-.262.138-.339.322-.231 1.426.476 2.353.86 2.783 1.153 1.518.691 2.4 1.429 2.645 2.213.291.845.314 1.406.069 1.682-.153.2-.307.292-.46.277-.307-.077-.621-.307-.943-.692-1.503-1.46-2.86-2.697-4.071-3.71-.23-.216-.345-.447-.345-.692zM31.224 1.296c.307-.107.652-.084 1.035.07.644.26 1.135.537 1.473.83.168.153.207.33.115.53-.276.799-.491 2.65-.644 5.555 2.008-.43 3.595-.791 4.76-1.083.66-.17 1.434.053 2.324.668.276.23.383.446.322.646-.077.153-.284.238-.621.253-3.88.246-6.187.438-6.923.576-.047.308-.1.608-.162.9l.3.414c1.748 2.336 3.427 4.219 5.037 5.648.521.461 2.116 1.291 4.784 2.49.506.246.751.438.736.576 0 .123-.238.192-.713.208-1.104.061-2.285.138-3.542.23-.43 0-.859-.261-1.288-.784-.936-1.045-2.032-2.497-3.29-4.356-1.134-1.722-1.863-2.882-2.185-3.481-.552 1.998-1.058 3.365-1.518 4.103-.444.692-1.318 1.567-2.622 2.628-1.61 1.076-2.806 1.614-3.588 1.614-.306-.031-.414-.1-.322-.208.046-.077.184-.169.414-.277 1.58-.968 2.722-1.82 3.427-2.558.092-.108.192-.208.3-.3 1.349-1.475 2.276-3.673 2.782-6.593a20.142 20.142 0 00-3.15.76c-.813.185-1.473.07-1.979-.345-.291-.277-.253-.446.115-.507l5.13-.922c.137-1.43.199-3.097.183-5.002 0-.554-.26-1.092-.782-1.614-.306-.307-.276-.53.092-.669zM71.5 15.726c.092 0 .23.078.414.231.445.37.859.746 1.242 1.13.337.43.483.814.437 1.153-.077.46-.192.768-.345.922-.138.153-.284.2-.437.138a1.025 1.025 0 01-.483-.53l-.76-1.798c-.214-.461-.313-.769-.298-.922.061-.2.138-.308.23-.323zM57.767.145c.138-.139.33-.177.575-.116.384.093.86.285 1.426.577.307.23.437.438.391.622-.23.753-.375 1.39-.437 1.913.982-.292 1.703-.384 2.163-.276.429.123.697.284.805.484.076.154.038.284-.115.392-.031 0-1.02.23-2.968.691a390.718 390.718 0 01-.39 6.247l1.84-.322c1.088-.262 2.047-.062 2.875.599.245.215.322.415.23.6-.108.153-.667.207-1.68.16a40.64 40.64 0 00-3.657.024l.046.046c2.561 2.09 4.746 3.435 6.556 4.034.92.277 1.77.561 2.553.853.26.092.368.192.322.3-.03.107-.192.169-.483.184-1.196.246-2.37.338-3.52.277-.628 0-1.134-.192-1.517-.577a65.095 65.095 0 01-4.555-4.864 2.294 2.294 0 01-.207-.23 26.12 26.12 0 00-4.462.461c.215.108.399.254.552.438.154.184.23.346.23.484 0 .154-.053.261-.16.323a3.602 3.602 0 00-.346.346c-.66.753-1.679 1.828-3.059 3.227-1.748 1.398-3.067 2.098-3.956 2.098-.138-.062-.153-.123-.046-.185 1.365-.953 2.33-1.683 2.898-2.19a.221.221 0 01.115-.092c1.87-1.798 2.806-3.227 2.806-4.288-.567.093-1.112.208-1.633.346-.245.062-.529.046-.85-.046a1.437 1.437 0 01-.737-.461c-.23-.277-.184-.423.138-.438 1.365-.154 2.676-.284 3.933-.392-.03-2.858-.069-4.849-.115-5.97-.046-.016-.076-.016-.092 0-.828.169-1.587.046-2.277-.37-.383-.291-.291-.468.276-.53.66-.06 1.319-.1 1.978-.115A11.03 11.03 0 0052.5 2.15c-.076-.246-.061-.422.046-.53.154-.092.345-.092.575 0a5.09 5.09 0 011.22.715c.23.215.314.514.252.899-.061.2-.1.538-.115 1.014 1.074-.184 2.377-.438 3.91-.76 0-.431-.007-.854-.023-1.269-.015-.415-.214-.922-.598-1.521-.107-.23-.107-.415 0-.553zM74.38 14.947c.058-.117.133-.149.225-.096.905.415 1.45.884 1.633 1.406.061.307.061.553 0 .738-.138.23-.299.315-.483.253-.307-.123-.767-.745-1.38-1.867-.077-.138-.084-.261-.023-.369zm2.525-1.318c.184-.046.644.215 1.38.784.307.261.46.515.46.76 0 .37-.054.63-.16.784-.108.123-.216.177-.323.162-.184-.046-.33-.17-.437-.37-.23-.43-.46-.814-.69-1.152-.245-.322-.368-.56-.368-.714.03-.154.077-.239.138-.254zM10.156.766c.122-.138.322-.177.598-.115.398.092.881.3 1.449.622.306.262.43.484.368.669-.384 1.46-.598 2.559-.644 3.296a54.631 54.631 0 002.162-.807c.414-.184.79-.207 1.127-.069.981.415 1.64.746 1.978.992.276.322.268.668-.023 1.037-.92.907-1.61 2.858-2.07 5.855.552-.123 1.08-.23 1.587-.323 1.073-.307 2.124-.084 3.151.669.307.261.406.492.299.691-.077.154-.299.23-.667.23h-.092c-7.13-.014-12.903.623-17.32 1.914-.291.092-.628.085-1.012-.023a1.934 1.934 0 01-.874-.507c-.276-.307-.222-.484.161-.53 1.534-.215 3.036-.4 4.508-.553-.536-2.674-.904-4.342-1.104-5.003a8.195 8.195 0 00-1.012-1.96c-.138-.23-.153-.399-.046-.506.123-.123.307-.154.552-.092.43.061.836.215 1.22.46A93.825 93.825 0 007.35 6.3a11.791 11.791 0 00-.966-3.62c-.123-.26-.108-.445.046-.553.138-.107.33-.115.575-.023.475.185.904.423 1.288.715.245.23.337.538.276.922-.077.353-.123 1.137-.138 2.351.874-.23 1.64-.4 2.3-.507.03-.876.046-1.713.046-2.513.015-.46-.192-1.045-.621-1.752-.138-.26-.138-.445 0-.553zm64.839.369a.956.956 0 01.828.207c.644.477.99.83 1.035 1.06.03.108-.054.308-.253.6-.981 1.383-1.978 2.982-2.99 4.795-.26.338-.13.5.391.484.583-.015 1.242-.03 1.978-.046.72-1.306 1.058-2.236 1.012-2.79-.046-.23.008-.368.161-.414.138-.062.33-.023.575.115.521.277.859.553 1.012.83.107.154.07.307-.115.46a10.51 10.51 0 00-1.173 1.384c-1.441 1.844-2.469 3.227-3.082 4.15-.2.307-.13.384.207.23a17.887 17.887 0 012.622-.853c-.245-.569-.345-.884-.299-.945.061-.154.146-.2.253-.138.184.076.483.284.897.622.276.184.445.392.506.622.061.308.061.538 0 .692-.169.215-.33.292-.483.23-.26-.092-.483-.322-.667-.691-1.518.615-2.76 1.322-3.726 2.12-.23.2-.422.208-.575.024-.399-.262-.621-.492-.667-.692-.046-.2.03-.376.23-.53.414-.261 1.388-1.53 2.921-3.804-1.35.2-2.308.492-2.875.876-.215.108-.399.085-.552-.069a2.776 2.776 0 01-.483-.876c-.03-.184.1-.4.39-.645.384-.4.714-.784.99-1.153 1.549-2.827 2.162-4.633 1.84-5.417-.092-.23-.061-.376.092-.438zm-67.6 5.97c-.582.108-1.157.23-1.724.37-.292.091-.56.145-.806.16.092 1.215.414 3.228.967 6.04a22.333 22.333 0 011.77-.253 137.82 137.82 0 01-.091-3.043 3.142 3.142 0 01-1.196-.323c-.369-.23-.3-.392.207-.484.322-.046.644-.077.966-.092-.046-.968-.077-1.76-.092-2.375zm3.152 2.72c-.706.139-1.388.285-2.047.439.03.906.069 1.913.115 3.02.352-.062.72-.116 1.104-.162a2.27 2.27 0 01.552-.07zm3.887-3.872c-.276-.261-.72-.3-1.334-.115-.445.076-.851.169-1.22.276a53.938 53.938 0 00-.183 2.305 2.12 2.12 0 011.035-.069c.398.123.651.262.759.415.046.123.015.238-.092.346-.092.077-.445.192-1.058.346-.26.046-.506.1-.736.161a172.4 172.4 0 00-.3 3.274c.86-.17 1.687-.308 2.485-.415.398-1.507.736-3.235 1.012-5.187.046-.6-.077-1.045-.368-1.337zM58.41 4.639c-1.349.184-2.675.392-3.979.622-.03.277-.046.853-.046 1.73 1.227-.431 2.07-.623 2.53-.577.368.077.629.215.782.415.123.184.016.307-.322.369-.812.092-1.778.23-2.898.415h-.092v1.429c.997-.4 1.794-.569 2.392-.507.399.061.675.207.828.438.123.184.016.307-.322.368-.828.123-1.794.254-2.898.392.016.477.03.992.046 1.545a45 45 0 011.886-.23 49.65 49.65 0 011.886-.231c.138-2.182.207-4.242.207-6.178zM10.708 6.368c-.767.153-1.526.322-2.277.507.015.476.03 1.29.046 2.443a6.82 6.82 0 01.805-.184c.46-.138.904-.261 1.334-.369.046-.814.076-1.614.092-2.397zm73.556-3.274c.092-.046.253-.038.483.023 1.334.323 2.07.715 2.208 1.176.123.446.154.768.092.968-.076.2-.191.308-.345.323-.23 0-.444-.092-.644-.277l-1.219-1.13c-.383-.322-.605-.56-.667-.714 0-.184.031-.307.092-.369z"/></svg>