<svg xmlns="http://www.w3.org/2000/svg" width="138" height="21" viewBox="0 0 103 35"><path d="M83.574.254c0 .365-.215 1.289-.644 2.773-3.164 1.042-7.24 2.507-12.227 4.395 2.317 2.044 5.156 5.247 8.515 9.61 1.185 1.536 2.149 2.525 2.89 2.968.574.339 1.4.508 2.481.508h1.697c2.487 0 3.73-.449 3.73-1.347 0-.625-.566-1.66-1.699-3.105l1.016-2.461c.104-.248.188-.371.254-.371.065 0 .201.15.41.449 1.054 1.55 1.582 3.138 1.582 4.765 0 3.308-1.647 4.961-4.942 4.961h-2.91v-.003l-.146-.005c-1.217-.078-2.463-.778-3.737-2.102-.664-.69-1.634-1.966-2.91-3.828.13 3.958-2.103 5.937-6.7 5.937h-9.48c-.677 0-1.354.111-2.031.332-.899.313-1.348.736-1.348 1.27 0 .195 1.201.53 3.603 1.006 2.403.475 3.604 1 3.604 1.572 0 1.966-.566 3.431-1.7 4.395-1.913 1.64-5.286 2.46-10.116 2.46-5.834 0-8.75-2.154-8.75-6.464 0-.964.208-2.045.625-3.242.416-1.198.924-2.188 1.523-2.97.235-.299.45-.462.645-.488.195-.013.293.092.293.313 0 .195-.078.443-.235.742-.755 1.432-1.133 2.917-1.133 4.453 0 1.263.476 2.305 1.426 3.125 1.224 1.068 3.125 1.602 5.703 1.602 1.993 0 3.841-.104 5.547-.313 3.021-.377 4.531-1.022 4.531-1.933 0-.378-.657-.677-1.972-.899-2.084-.351-3.295-.573-3.633-.664-1.315-.364-1.973-.924-1.973-1.68 0-.598.32-1.347.957-2.246.534-.755 1.094-1.367 1.68-1.835 1.172-.951 2.839-1.426 5-1.426h7.586c3.36 0 5.039-.931 5.04-2.793-.001-.99-.587-2.2-1.759-3.633-.742-.911-1.823-2.025-3.242-3.34-1.172-1.093-1.758-1.699-1.758-1.816 0-1.654.28-2.865.84-3.633.13-.17 1.764-.833 4.902-1.992 3.32-1.224 6.309-2.24 8.965-3.047zM38.011 30.427l1.836 1.836-1.816 1.816-1.836-1.836 1.816-1.816zm60.59-16.349c1.562 0 2.721 1.074 3.476 3.223.521 1.497.782 3.196.782 5.098 0 3.723-1.283 6.913-3.848 9.57-.807.833-1.322 1.25-1.543 1.25-1.393 0-3.014-.144-4.863-.43-.638-.104-.957-.202-.957-.293 0-.104.338-.254 1.015-.45 2.031-.585 3.913-1.627 5.645-3.124a12.055 12.055 0 001.992-2.207c.755-1.055 1.133-1.94 1.133-2.656v-.82l-3.262.117c-2.305.078-3.457-.88-3.457-2.872 0-1.237.358-2.565 1.074-3.984.82-1.615 1.758-2.422 2.813-2.422zm-9.436 12.325l1.933 1.953-1.933 1.934-1.934-1.953 1.934-1.934zm-4.297 0l1.953 1.953-1.934 1.934-1.933-1.953 1.914-1.934zm-71.726 0l1.934 1.953-1.934 1.934-1.933-1.953 1.933-1.934zm-4.297 0l1.953 1.953-1.933 1.934-1.934-1.953 1.914-1.934zm26.94.117l1.836 1.836-1.836 1.817-1.856-1.836 1.856-1.817zm4.433 0l1.856 1.836-1.836 1.817-1.855-1.836 1.835-1.817zM27.168 8.066c.078.053.176.215.293.489.86 2.031 1.999 5 3.418 8.906.742 2.031 1.79 3.047 3.144 3.047h3.407c2.487 0 3.73-.449 3.73-1.347 0-.625-.566-1.66-1.699-3.105l1.016-2.461c.104-.248.188-.371.253-.371.066 0 .202.15.41.449 1.055 1.55 1.583 3.138 1.583 4.765 0 3.308-1.647 4.961-4.942 4.961h-4.168c-.937 0-1.732-.3-2.383-.899-.403-.365-.892-1.029-1.464-1.992-.6 1.054-1.296 1.803-2.09 2.246-.977.534-2.357.8-4.14.8-3.503 0-5.255-1.256-5.255-3.769 0-.846.26-1.719.782-2.617.169-.3.338-.45.507-.45.157 0 .235.13.235.391 0 .144-.02.355-.059.635-.039.28-.058.492-.058.635 0 1.497 1.269 2.246 3.808 2.246 3.58 0 5.371-.697 5.371-2.09 0-.755-1.035-3.47-3.105-8.144l1.113-1.934c.143-.247.24-.377.293-.39zM1.875 0c.078 0 .15.156.215.469.065.312.124.732.176 1.26.052.527.097 1.136.136 1.826.04.69.072 1.41.098 2.158a128.238 128.238 0 01.078 4.404v7.285c0 2.07.996 3.106 2.988 3.106H9.54c2.487 0 3.73-.449 3.73-1.347 0-.625-.566-1.66-1.699-3.105l1.016-2.461c.104-.248.188-.371.253-.371.066 0 .202.15.41.449 1.055 1.55 1.583 3.138 1.583 4.765 0 3.308-1.647 4.961-4.942 4.961H5.176c-.808 0-1.5-.134-2.08-.401a3.436 3.436 0 01-1.436-1.25c-.377-.566-.654-1.296-.83-2.187-.176-.892-.264-1.97-.264-3.233l.02-4.765C.586 9.297.39 6.055 0 1.836L1.543.196c.13-.13.24-.196.332-.196zm96.316 16.871c-.521 0-.974.195-1.358.586-.384.39-.576.846-.576 1.367 0 1.146.82 1.719 2.461 1.719.612 0 1.393-.072 2.344-.215 0-.794-.274-1.556-.82-2.285-.6-.781-1.283-1.172-2.051-1.172z" fill="#72777D"/></svg>