<svg xmlns="http://www.w3.org/2000/svg" height="21" width="138"><path fill="#72777D" d="M11.303 0c1.188.026 2.174.054 2.756.054.582 0 1.214-.027 2.225-.054.152.161.152.729 0 .891-1.669.216-2 1.233-2.485 2.51L8.573 17.168c-.147.386-.329.621-.607.621-.253 0-.43-.2-.582-.621L2.39 3.348C1.67 1.377 1.568 1.027.127.892-.025.73-.05.163.102.001 1.29.027 1.72.055 2.732.055c.985 0 1.87-.027 3.06-.054.15.161.15.729 0 .891-1.72.188-1.867.553-1.28 2.159l4.022 10.986h.116l3.992-10.824c.542-1.469.531-2.187-1.34-2.321-.15-.163-.15-.731.001-.892zm12.41 14.171c0 2.24.278 2.349 1.82 2.456.152.162.152.729 0 .891-1.087-.026-1.72-.054-2.806-.054-1.113 0-1.77.027-2.832.054-.151-.162-.151-.729 0-.891 1.542-.135 1.82-.216 1.82-2.456V8.34c0-2.24-.278-2.348-1.82-2.456-.151-.162-.151-.729 0-.891 1.087.027 1.719.054 2.807.054 1.112 0 1.77-.026 2.832-.054.152.162.152.729 0 .891-1.542.135-1.82.216-1.82 2.456v5.831zm-1.29-12.966c.684 0 1.215.755 1.215 1.403 0 .569-.607 1.296-1.315 1.296-.607 0-1.213-.702-1.213-1.404-.001-.647.707-1.295 1.314-1.295zm7.471 4.679c-.151-.162-.151-.729 0-.891 1.062.027 1.719.054 2.832.054.936 0 1.34-.026 2.427-.054.15.162.15.729 0 .891-1.214.135-1.441.216-1.441 2.456v2.402c.834 0 1.575-.426 2.655-1.728 1.947-2.348 2.2-3.05.936-3.131-.152-.162-.152-.729 0-.891 1.087.027 2.048.054 2.78.054.658 0 1.088-.026 1.77-.054.152.162.152.729 0 .891-1.01.054-1.938.191-2.705 1.134l-2.174 2.672c-.43.486-.582.783-.582.999 0 .162.1.297.228.459l3.742 4.697c.33.41.936.701 1.618.782.15.162.15.702 0 .864 0 0-1.24-.027-1.947-.027-.658 0-1.29.027-1.568.054v-.378c0-.351-.025-.647-.38-1.079l-2.805-3.726c-.38-.54-1.012-.675-1.568-.675v2.511c0 2.24.228 2.321 1.44 2.456.152.162.152.729 0 .891-1.086-.026-1.491-.054-2.426-.054-1.113 0-1.77.027-2.832.054-.151-.162-.151-.729 0-.891 1.542-.135 1.82-.216 1.82-2.456V8.339c0-2.239-.278-2.32-1.82-2.455zm20.163 8.287c0 2.24.278 2.349 1.82 2.456.152.162.152.729 0 .891-1.087-.026-1.72-.054-2.806-.054-1.113 0-1.77.027-2.832.054-.151-.162-.151-.729 0-.891 1.542-.135 1.82-.216 1.82-2.456V8.34c0-2.24-.277-2.348-1.82-2.456-.151-.162-.151-.729 0-.891 1.087.027 1.719.054 2.807.054 1.112 0 1.77-.026 2.832-.054.152.162.152.729 0 .891-1.542.135-1.82.216-1.82 2.456v5.831zm-1.29-12.966c.684 0 1.215.647 1.215 1.295 0 .569-.607 1.404-1.315 1.404-.606 0-1.213-.702-1.213-1.404-.001-.647.707-1.295 1.314-1.295zm13.059 15.422c.152.162.152.729 0 .891-1.087-.026-1.72-.054-2.806-.054-1.113 0-1.771.027-2.832.054-.152-.162-.152-.729 0-.891 1.542-.135 1.82-.216 1.82-2.456V8.34c0-2.24-.278-2.348-1.82-2.456-.152-.162-.152-.729 0-.891 1.087.027 1.719.054 2.807.054.683 0 1.744-.054 2.68-.054 3.59 0 4.349 1.89 4.349 3.293 0 1.62-1.036 4.211-4.425 4.211-.632 0-1.138-.107-1.593-.324v1.998c0 2.24.278 2.349 1.82 2.456zm-1.82-5.317c.506.216 1.138.297 1.644.297 1.518 0 2.175-1.05 2.175-2.996 0-1.893-.81-2.727-2.301-2.727-1.214 0-1.518.351-1.518 1.215zm13.968.081v4.049c0 .513.354 1.188.81 1.188h2.099c1.593 0 2.326-1.35 2.73-2.942.278-.081.48-.026.708.108-.177 1.134-.455 2.618-.76 3.725 0 0-1.668-.054-2.68-.054h-3.893s-1.771.027-2.832.054c-.151-.162-.151-.729 0-.891 1.542-.135 1.82-.216 1.82-2.456V8.341c0-2.24-.278-2.348-1.82-2.456-.151-.162-.151-.729 0-.891 1.087.027 2.807.054 2.807.054h5.233c.506 0 .683-.054 1.037-.107.05 0 .075.026.075.081.05.188.354 2.294.455 3.212-.202.107-.43.162-.683.135-.455-1.538-.783-2.43-2.351-2.43h-1.947c-.48 0-.81.297-.81.756v3.833h1.44c1.772-.026 1.695-.297 1.746-1.512.126-.135.58-.135.708 0-.025.675-.051 1.161-.051 1.917s.025 1.188.05 1.971c-.126.135-.581.135-.707 0-.051-.999.05-1.512-1.745-1.512h-1.44zm16.422-6.398c4.223 0 6.296 2.808 6.296 6.397 0 4.724-3.135 6.127-5.941 6.127-2.023 0-2.934-.054-3.691-.054-1.112 0-1.771.027-2.832.054-.151-.162-.151-.729 0-.891 1.542-.135 1.82-.216 1.82-2.456V8.339c0-2.24-.278-2.348-1.82-2.456-.151-.162-.151-.729 0-.891 1.087.027 1.72.054 2.807.054.48.001 2.704-.053 3.36-.053zm-.253 11.634c2.78 0 4.35-.999 4.35-4.777 0-2.808-.582-5.966-4.83-5.966-.985 0-1.618.162-1.618.837v8.691c0 .756.178 1.215 2.098 1.215zm14.601-2.456c0 2.24.278 2.349 1.82 2.456.152.162.152.729 0 .891-1.087-.026-1.72-.054-2.807-.054-1.112 0-1.77.027-2.831.054-.152-.162-.152-.729 0-.891 1.542-.135 1.82-.216 1.82-2.456V7.135c0-2.24-.278-2.348-1.82-2.456-.152-.162-.152-.729 0-.891 1.087.027 1.719.054 2.806.054 1.113 0 1.77-.026 2.832-.054.152.162.152.729 0 .891-1.542.135-1.82.216-1.82 2.456zM103.454 0c.684 0 1.214.755 1.214 1.403 0 .569-.606 1.296-1.314 1.296-.606 0-1.214-.702-1.214-1.404 0-.647.708-1.295 1.315-1.295z"/></svg>