<svg xmlns="http://www.w3.org/2000/svg" width="138" height="21"><g fill="#72777D"><path d="M12.475 4.542s-.426-.87-.571-1.16c-.967-1.927-.946-2.03-1.924-2.16-.274-.037-.415-.072-.415-.208v-.61l.082-.06c1.766-.002 5.697-.002 5.697-.002l.15.05V1c0 .139-.098.21-.299.21l-.413.06c-1.043.081-.873.51-.18 1.9l6.584 13.55.225.063 5.845-13.955c.203-.562.171-.961-.09-1.196-.262-.227-.446-.364-1.123-.392l-.549-.027a.316.316 0 01-.192-.07.205.205 0 01-.092-.17V.392l.083-.06h6.604l.067.06v.581c0 .158-.09.237-.266.237-.865.038-1.506.227-1.921.565-.417.339-.741.806-.974 1.415 0 0-5.375 12.376-7.215 16.49-.704 1.35-1.396 1.226-2.005-.038-1.286-2.665-4.907-10.748-4.907-10.748l-2.201-4.352z"/><path d="M23.023.335s-3.715-.012-5.368 0l-.083.06v.578c0 .071.03.127.09.17.062.046.125.07.192.07l.266.028c.676.027.987.207 1.08.318.16.198.24.413-.15 1.27l-6.935 13.916-.182-.048S6.966 6.161 5.528 2.636c-.15-.365-.217-.636-.217-.803 0-.358.321-.552.964-.579l.75-.031c.197 0 .298-.077.298-.237V.407l-.067-.06S1.306.342.078.348L.01.408v.608c0 .11.138.177.416.208.755.04 1.25.162 1.49.364.237.204.49.72.823 1.523 1.806 4.364 5.642 12.15 7.51 16.585.538 1.21 1.214 1.398 2.035-.038 1.422-2.652 5.277-10.754 5.277-10.754l3.036-5.712c.353-.604.694-1.142.867-1.392.317-.458.494-.545 1.36-.586.176 0 .265-.079.265-.239v-.58l-.066-.06zm11.294 18.063c0 .668.301 1.062 1.266 1.153l.633.062c.09 0 .181.06.181.18v.638l-.03.061s-2.291-.061-3.226-.061c-.844 0-3.196.061-3.196.061l-.06-.061v-.637c0-.122.09-.181.21-.181l.604-.062c.995-.091 1.296-.576 1.296-1.153v-10.1c0-.666-.363-.851-1.296-.94l-.603-.063c-.121 0-.211-.028-.211-.121v-.699l.03-.06s2.382.06 3.316.06c.814 0 3.136-.06 3.136-.06l.03.06v.667c0 .091-.06.152-.18.152l-.634.062c-.935.09-1.266.333-1.266.941v10.101zm8.898 0c0 .668.392 1.001 1.266 1.153l.332.062c.09.029.18.06.18.18v.638l-.03.061s-1.899-.061-2.803-.061c-.845 0-3.317.061-3.317.061l-.06-.061v-.637c0-.122.09-.181.21-.181l.604-.062c.904-.091 1.296-.576 1.296-1.153v-10.1c0-.666-.331-.851-1.296-.94l-.603-.063c-.12 0-.211-.028-.211-.121v-.699l.03-.06s2.472.06 3.407.06c.845 0 2.744-.06 2.744-.06l.03.06v.667c0 .091-.06.122-.181.152l-.332.062c-.934.18-1.266.333-1.266.941v4.582c.995 0 1.568-.513 2.894-1.941C47.315 9.6 48.25 8.482 48.25 7.902c0-.244-.271-.514-.874-.608-.12-.028-.181-.06-.181-.151v-.7l.03-.029s2.442.061 3.317.061c.784 0 2.11-.06 2.11-.06l.09.027v.7c0 .091-.09.152-.24.152-1.176.091-1.99.152-3.076 1.396l-2.593 3c-.513.548-.693.88-.693 1.124 0 .182.12.332.27.514l4.554 5.52c.362.424 1.085.607 1.688.728l.151.029c.09.029.211.09.211.18v.638l-.09.03s-1.598-.03-2.443-.03c-.753 0-1.839.03-1.839.03l-.03-.03v-.364c0-.396-.03-.727-.452-1.212l-3.347-4.188c-.452-.607-.935-.757-1.598-.757v4.495zm16.255 0c0 .668.301 1.062 1.266 1.153l.633.062c.09 0 .181.06.181.18v.638l-.03.061s-2.291-.061-3.226-.061c-.844 0-3.196.061-3.196.061l-.06-.061v-.637c0-.122.09-.181.21-.181l.604-.062c.995-.091 1.296-.576 1.296-1.153v-10.1c0-.666-.362-.851-1.296-.94l-.603-.063c-.12 0-.211-.028-.211-.121v-.699l.03-.06s2.382.06 3.316.06c.815 0 3.136-.06 3.136-.06l.03.06v.667c0 .091-.06.152-.18.152l-.634.062c-.934.09-1.266.333-1.266.941v10.101zm6.515-10.041c0-.94-.392-.97-1.81-1.062-.18 0-.21-.09-.21-.151v-.698l.06-.03c.452 0 2.231.06 3.106.06.844 0 2.05-.06 3.166-.06 4.279 0 5.063 2.122 5.063 3.701 0 1.821-.875 4.672-5.154 4.672-.754 0-1.357-.062-1.9-.304v4.063c0 .666.361.82 1.327.97l.604.091c.121.03.213.062.213.181v.637l-.028.062s-2.414-.062-3.348-.062c-.844 0-3.106.062-3.106.062l-.03-.062v-.637c0-.121.06-.151.181-.18l.633-.092c.935-.121 1.236-.394 1.236-.97l-.003-10.191zm2.322 5.279c.603.244 1.356.273 1.96.273 1.81 0 2.68-1.094 2.68-3.428 0-2.608-1.175-3.185-2.831-3.185-1.449 0-1.81.273-1.81 1.062v5.278zm12.246 6.794c-.905 0-2.984.063-2.984.063l-.032-.062v-.668c0-.06.032-.15.181-.15l.696-.062c.936-.091 1.207-.698 1.207-1.303V8.238c0-.7-.361-.82-1.207-.88l-.696-.063c-.18-.028-.18-.09-.18-.121v-.699l.03-.06s2.351.06 3.256.06h4.432c.905 0 3.047-.06 3.047-.06l.062.06c.028 1.304.24 2.49.452 3.641l-.751.122c-.33-1.124-.903-2.73-2.833-2.73h-2.412c-.573 0-.875.212-.875.726v4.4h2.26c.846 0 1.056-.364 1.178-.97l.18-.638c0-.09.06-.153.18-.153h.51c.063 0 .063.032.063.091-.062.666-.18 1.518-.18 2.246 0 .757.12 1.395.18 2.093l-.062.062h-.51c-.15 0-.214-.062-.214-.153l-.15-.666c-.121-.608-.393-.941-1.18-.941h-2.26v4.642c0 .574.329 1.15.875 1.15h2.865c1.537 0 2.384-.97 2.743-2.55l.752.09-.604 3.488-.06.06s-1.78-.06-2.684-.06l-5.275.006zm11.339-.817l.693-.062c.906-.091 1.207-.364 1.207-1.303V8.238c0-.791-.213-.791-1.207-.88l-.66-.063c-.121 0-.214-.06-.214-.151v-.668l.029-.06s2.654.06 3.198.06c.57 0 3.196-.06 3.98-.06 5.035 0 7.509 3.154 7.509 7.188 0 5.31-3.74 6.885-7.084 6.885-2.412 0-3.467-.062-4.401-.062-.906 0-3.199.062-3.199.062l-.029-.062v-.637a.17.17 0 01.178-.177zm6.725 0c3.315 0 5.187-1.241 5.187-5.492 0-3.153-.695-6.826-5.76-6.826-1.176 0-1.93.182-1.93.943v10.01c0 .847.21 1.365 2.503 1.365zm14.928-1.215c0 .668.302 1.062 1.266 1.153l.634.062c.09 0 .18.06.18.18v.638l-.03.061s-2.291-.061-3.225-.061c-.845 0-3.196.061-3.196.061l-.061-.061v-.637c0-.122.09-.181.21-.181l.605-.062c.994-.091 1.297-.576 1.297-1.153v-10.1c0-.666-.363-.851-1.297-.94l-.604-.063c-.12 0-.211-.028-.211-.121v-.699l.03-.06s2.382.06 3.314.06c.813 0 3.137-.06 3.137-.06l.028.06v.667c0 .091-.063.152-.18.152l-.634.062c-.936.09-1.266.333-1.266.941l.003 10.101zm9.289 1.153l.874.062c.12 0 .242.09.242.241v.577l-.06.061s-3.287-.061-4.01-.061c-.786 0-2.716.061-2.716.061l-.061-.061v-.577c0-.15.09-.241.242-.241 1.328-.091 2.08-.335 2.924-2.276l6.692-15.775c.33-.789.573-1.093 1.028-1.093.42 0 .571.304.811.911l6.181 16.44c.424 1.185 1.028 1.639 2.234 1.76l.33.03c.152 0 .303.09.303.243v.574l-.09.062s-2.322-.062-3.5-.062c-1.054 0-4.01.062-4.01.062l-.028-.062v-.574c0-.154.06-.244.214-.244l.845-.062c1.144-.09 1.569-.456 1.266-1.303l-1.84-5.128h-6.273c-.724 0-.905.121-1.054.513l-1.75 4.4c-.302.762.09 1.431 1.206 1.522zm7.387-7.707l-2.925-8.098h-.06l-3.015 7.705c-.12.306.09.394.752.394h5.248v-.001z"/></g></svg>